<svg width="32" height="32" viewBox="0 0 32 32" fill="none" xmlns="http://www.w3.org/2000/svg">
<g clip-path="url(#clip0_4_10)">
<rect width="32" height="32" rx="4" fill="url(#paint0_linear_4_10)"/>
<path d="M16.68 24C15.96 24 15.3533 23.7533 14.86 23.26C14.3667 22.7667 14.12 22.1733 14.12 21.48C14.12 20.4667 14.53 19.55 15.35 18.73C16.17 17.91 17.1933 17.4 18.42 17.2C18.38 16.72 18.26 16.3567 18.06 16.11C17.86 15.8633 17.5867 15.74 17.24 15.74C16.84 15.74 16.4067 15.9067 15.94 16.24C15.4733 16.5733 14.92 17.12 14.28 17.88C13.24 19.12 12.4767 19.9267 11.99 20.3C11.5033 20.6733 10.98 20.86 10.42 20.86C9.74 20.86 9.16667 20.6067 8.7 20.1C8.23333 19.5933 8 18.98 8 18.26C8 17.54 8.15667 16.8033 8.47 16.05C8.78333 15.2967 9.31333 14.3933 10.06 13.34C10.3133 12.9933 10.5 12.7 10.62 12.46C10.74 12.22 10.8 12.0267 10.8 11.88C10.8 11.7867 10.7833 11.7167 10.75 11.67C10.7167 11.6233 10.6667 11.6 10.6 11.6C10.4667 11.6 10.3 11.6833 10.1 11.85C9.9 12.0167 9.66667 12.2733 9.4 12.62L8 11.2C8.42667 10.68 8.86 10.2833 9.3 10.01C9.74 9.73667 10.1733 9.6 10.6 9.6C11.2133 9.6 11.7333 9.81333 12.16 10.24C12.5867 10.6667 12.8 11.2 12.8 11.84C12.8 12.2267 12.7 12.6533 12.5 13.12C12.3 13.5867 11.9667 14.1467 11.5 14.8C10.9933 15.52 10.6167 16.1533 10.37 16.7C10.1233 17.2467 10 17.7267 10 18.14C10 18.3667 10.0367 18.5433 10.11 18.67C10.1833 18.7967 10.2867 18.86 10.42 18.86C10.5533 18.86 10.67 18.8233 10.77 18.75C10.87 18.6767 11.0533 18.5 11.32 18.22C11.4933 18.0333 11.7 17.8033 11.94 17.53C12.18 17.2567 12.4733 16.92 12.82 16.52C13.66 15.52 14.42 14.8067 15.1 14.38C15.78 13.9533 16.4933 13.74 17.24 13.74C18.1333 13.74 18.8667 14.04 19.44 14.64C20.0133 15.24 20.34 16.06 20.42 17.1H22.4V19.1H20.42C20.3133 20.5933 19.9233 21.7833 19.25 22.67C18.5767 23.5567 17.72 24 16.68 24ZM16.72 22C17.1467 22 17.5067 21.7567 17.8 21.27C18.0933 20.7833 18.2933 20.1067 18.4 19.24C17.7867 19.3867 17.2533 19.6767 16.8 20.11C16.3467 20.5433 16.12 20.9733 16.12 21.4C16.12 21.5867 16.1733 21.7333 16.28 21.84C16.3867 21.9467 16.5333 22 16.72 22ZM21.6 12.8C20.9333 12.8 20.3667 12.5667 19.9 12.1C19.4333 11.6333 19.2 11.0667 19.2 10.4C19.2 9.73333 19.4333 9.16667 19.9 8.7C20.3667 8.23333 20.9333 8 21.6 8C22.2667 8 22.8333 8.23333 23.3 8.7C23.7667 9.16667 24 9.73333 24 10.4C24 11.0667 23.7667 11.6333 23.3 12.1C22.8333 12.5667 22.2667 12.8 21.6 12.8Z" fill="white"/>
<rect width="32" height="32" rx="4" fill="url(#paint1_linear_4_10)"/>
</g>
<defs>
<linearGradient id="paint0_linear_4_10" x1="-3.70443" y1="29.4778" x2="35.3103" y2="5.35961" gradientUnits="userSpaceOnUse">
<stop stop-color="#FE8D78"/>
<stop offset="1" stop-color="#D25EDC"/>
</linearGradient>
<linearGradient id="paint1_linear_4_10" x1="16" y1="-4.68571" x2="16" y2="12" gradientUnits="userSpaceOnUse">
<stop stop-color="white" stop-opacity="0.57"/>
<stop offset="1" stop-color="#FCFCFC" stop-opacity="0"/>
</linearGradient>
<clipPath id="clip0_4_10">
<rect width="32" height="32" rx="4" fill="white"/>
</clipPath>
</defs>
</svg>
